<?xml version="1.0" encoding="UTF-8" standalone="no"?>
<!-- Created with Inkscape (http://www.inkscape.org/) -->

<svg
   width="128"
   height="128"
   viewBox="0 0 33.866667 33.866666"
   version="1.1"
   id="svg1"
   inkscape:version="1.3.2 (091e20e, 2023-11-25, custom)"
   sodipodi:docname="die_p.svg"
   xmlns:inkscape="http://www.inkscape.org/namespaces/inkscape"
   xmlns:sodipodi="http://sodipodi.sourceforge.net/DTD/sodipodi-0.dtd"
   xmlns="http://www.w3.org/2000/svg"
   xmlns:svg="http://www.w3.org/2000/svg">
  <sodipodi:namedview
     id="namedview1"
     pagecolor="#ffffff"
     bordercolor="#000000"
     borderopacity="0.25"
     inkscape:showpageshadow="2"
     inkscape:pageopacity="0.0"
     inkscape:pagecheckerboard="0"
     inkscape:deskcolor="#d1d1d1"
     inkscape:document-units="px"
     inkscape:zoom="4.3571539"
     inkscape:cx="55.999857"
     inkscape:cy="58.409687"
     inkscape:window-width="2560"
     inkscape:window-height="1369"
     inkscape:window-x="2552"
     inkscape:window-y="-8"
     inkscape:window-maximized="1"
     inkscape:current-layer="layer1" />
  <defs
     id="defs1">
    <filter
       inkscape:collect="always"
       style="color-interpolation-filters:sRGB"
       id="filter2"
       x="-0.14814584"
       y="-0.14814581"
       width="1.2962917"
       height="1.2962916">
      <feGaussianBlur
         inkscape:collect="always"
         stdDeviation="0.97863705"
         id="feGaussianBlur2" />
    </filter>
  </defs>
  <g
     inkscape:label="Layer 1"
     inkscape:groupmode="layer"
     id="layer1">
    <rect
       style="fill:#000000;fill-opacity:1;stroke:#000000;stroke-width:2.64583332;stroke-dasharray:none;stroke-opacity:1;filter:url(#filter2)"
       id="rect1"
       width="24.783993"
       height="24.783998"
       x="4.5413318"
       y="4.5413318"
       rx="1.671946"
       ry="1.6767299" />
    <rect
       style="fill:#c2e9da;fill-opacity:1;stroke:#143252;stroke-width:2.11666666;stroke-dasharray:none;stroke-opacity:1"
       id="rect2"
       width="24.783993"
       height="24.783998"
       x="4.5413318"
       y="4.5413318"
       rx="1.671946"
       ry="1.6767299" />
    <path
       id="path2"
       style="fill:#143252;fill-opacity:1;stroke:none;stroke-width:2.4091;stroke-dasharray:none;stroke-opacity:1"
       d="m 13.922148,7.8992594 v 1.5058513 c 0,0 0.588522,-0.038056 1.053682,0.451652 0.465159,0.4897043 0.451652,1.0536823 0.451652,1.0536823 v 4.517037 h -4.517037 c 0,0 -0.563978,0.0135 -1.0536823,-0.451652 -0.4897076,-0.46516 -0.451652,-1.053682 -0.451652,-1.053682 H 7.8992594 v 3.011185 3.011186 h 1.5058513 c 0,0 -0.038056,-0.588523 0.451652,-1.053683 0.4897043,-0.465158 1.0536823,-0.451652 1.0536823,-0.451652 h 4.517037 v 4.517037 c 0,0 0.0135,0.563978 -0.451652,1.053683 -0.46516,0.489707 -1.053682,0.451652 -1.053682,0.451652 v 1.505851 h 3.011185 3.011186 v -1.505851 c 0,0 -0.588523,0.03805 -1.053683,-0.451652 -0.465156,-0.489705 -0.451652,-1.053683 -0.451652,-1.053683 v -4.517037 h 4.517037 c 0,0 0.563978,-0.0135 1.053683,0.451652 0.489707,0.46516 0.451652,1.053683 0.451652,1.053683 h 1.505851 v -3.011186 -3.011185 h -1.505851 c 0,0 0.03805,0.588522 -0.451652,1.053682 -0.489705,0.465157 -1.053683,0.451652 -1.053683,0.451652 h -4.517037 v -4.517037 c 0,0 -0.0135,-0.563978 0.451652,-1.0536824 0.465159,-0.4897076 1.053683,-0.451652 1.053683,-0.451652 V 7.8992594 h -3.011186 z" />
  </g>
</svg>
