<?xml version="1.0" encoding="UTF-8" standalone="no"?>
<!-- Created with Inkscape (http://www.inkscape.org/) -->

<svg
   width="128"
   height="128"
   viewBox="0 0 33.866667 33.866666"
   version="1.1"
   id="svg1"
   inkscape:version="1.3.2 (091e20e, 2023-11-25, custom)"
   sodipodi:docname="die_n.svg"
   xmlns:inkscape="http://www.inkscape.org/namespaces/inkscape"
   xmlns:sodipodi="http://sodipodi.sourceforge.net/DTD/sodipodi-0.dtd"
   xmlns="http://www.w3.org/2000/svg"
   xmlns:svg="http://www.w3.org/2000/svg">
  <sodipodi:namedview
     id="namedview1"
     pagecolor="#ffffff"
     bordercolor="#000000"
     borderopacity="0.25"
     inkscape:showpageshadow="2"
     inkscape:pageopacity="0.0"
     inkscape:pagecheckerboard="0"
     inkscape:deskcolor="#d1d1d1"
     inkscape:document-units="px"
     inkscape:zoom="4.3571539"
     inkscape:cx="55.999857"
     inkscape:cy="58.409687"
     inkscape:window-width="2560"
     inkscape:window-height="1369"
     inkscape:window-x="2552"
     inkscape:window-y="-8"
     inkscape:window-maximized="1"
     inkscape:current-layer="layer1" />
  <defs
     id="defs1">
    <filter
       inkscape:collect="always"
       style="color-interpolation-filters:sRGB"
       id="filter2"
       x="-0.14814584"
       y="-0.14814581"
       width="1.2962917"
       height="1.2962916">
      <feGaussianBlur
         inkscape:collect="always"
         stdDeviation="0.97863705"
         id="feGaussianBlur2" />
    </filter>
  </defs>
  <g
     inkscape:label="Layer 1"
     inkscape:groupmode="layer"
     id="layer1">
    <rect
       style="fill:#000000;fill-opacity:1;stroke:#000000;stroke-width:2.64583332;stroke-dasharray:none;stroke-opacity:1;filter:url(#filter2)"
       id="rect1"
       width="24.783993"
       height="24.783998"
       x="4.5413318"
       y="4.5413318"
       rx="1.671946"
       ry="1.6767299" />
    <rect
       style="fill:#c2e9da;fill-opacity:1;stroke:#143252;stroke-width:2.11666666;stroke-dasharray:none;stroke-opacity:1"
       id="rect2"
       width="24.783993"
       height="24.783998"
       x="4.5413318"
       y="4.5413318"
       rx="1.671946"
       ry="1.6767299" />
    <path
       id="path2"
       style="fill:#143252;fill-opacity:1;stroke:none;stroke-width:2.4091;stroke-dasharray:none;stroke-opacity:1"
       d="m 7.89923,13.921966 v 3.011367 3.011368 h 1.505684 c 0,0 -0.038003,-0.588819 0.4517051,-1.053979 0.4897049,-0.465159 1.0539779,-0.451705 1.0539779,-0.451705 h 6.022736 6.022736 c 0,0 0.564273,-0.01345 1.053978,0.451705 0.489708,0.46516 0.451705,1.053979 0.451705,1.053979 h 1.505684 v -3.011368 -3.011367 h -1.505684 c 0,0 0.038,0.588819 -0.451705,1.053979 -0.489705,0.465157 -1.053978,0.451705 -1.053978,0.451705 h -6.022736 -6.022736 c 0,0 -0.564273,0.01345 -1.0539779,-0.451705 C 9.366911,14.510785 9.404914,13.921966 9.404914,13.921966 Z" />
  </g>
</svg>
